<svg version="1.1" xmlns="http://www.w3.org/2000/svg" xmlns:xlink="http://www.w3.org/1999/xlink" x="0px" y="0px"
   viewBox="0 0 246 64" style="enable-background:new 0 0 246 64;" xml:space="preserve">
<defs>
  <path id="path_1" d="M48.33,12.64L27.45,0.59c-1.35-0.78-3.03-0.78-4.38,0L2.19,12.64c-1.35,0.79-2.18,2.23-2.18,3.8v24.12
    c0,1.56,0.83,3,2.18,3.79l10.45,6.04V62.7c0,0.73,0.59,1.31,1.32,1.31c0.23,0,0.45-0.06,0.65-0.18l33.75-19.47
    c1.35-0.78,2.19-2.22,2.18-3.79V16.44C50.53,14.86,49.69,13.42,48.33,12.64z"/>
</defs>

<clipPath id="path_2">
  <use xlink:href="#path_1" style="overflow:visible;"/>
</clipPath>

<g clip-path="url(#path_2)">
  <polygon fill="#ef6c00" points="0,13.91 0,43.07 12.63,50.36 12.63,64.95 50.51,43.07 50.51,13.91 25.26,28.49"/>
  <polygon fill="#ff9800" points="0,13.91 25.26,-0.67 50.51,13.91 25.26,28.49"/>
  <polygon fill="#bf360c" opacity="0.1" enable-background="new" points="49.92,13.56 24.82,28.05 0.16,13.81 0,13.91 25.26,28.49 50.51,13.91"/>
  <polygon fill="#ffffff" opacity="0.1" enable-background="new" points="25.26,28.49 0.16,14 0,14.09 25.26,28.67"/>
</g>

<path fill="#757575" d="M65.44,42.93V14.24h8.77c4.41,0,7.93,1.33,10.58,3.99c2.64,2.66,3.97,6.11,3.97,10.36s-1.32,7.7-3.97,10.36
  s-6.17,3.99-10.58,3.99h-8.77V42.93z M69.13,39.41h5.09c3.32,0,5.94-0.95,7.87-2.84s2.9-4.55,2.91-7.97c0-3.39-0.97-6.04-2.91-7.95
  s-4.56-2.87-7.87-2.86h-5.09V39.41z M95.41,18.38c-1.02,1.02-2.67,1.03-3.69,0.01s-1.03-2.67-0.01-3.69s2.67-1.03,3.69-0.01
  c0.49,0.49,0.77,1.15,0.77,1.85C96.18,17.22,95.91,17.89,95.41,18.38z M95.41,42.93h-3.68V23.3h3.68V42.93z M106.24,43.57
  c-1.91,0.06-3.77-0.58-5.23-1.8c-1.39-1.18-2.17-2.94-2.1-4.77c-0.07-1.99,0.86-3.88,2.49-5.03c1.66-1.21,3.7-1.82,6.13-1.82
  c2.16,0,3.94,0.4,5.33,1.2v-0.56c0.05-1.32-0.49-2.59-1.48-3.47c-1.01-0.88-2.31-1.34-3.64-1.3c-1.02-0.01-2.02,0.25-2.91,0.76
  c-0.82,0.46-1.45,1.2-1.78,2.08l-3.36-1.44c0.45-1.18,1.35-2.27,2.69-3.26c1.34-0.99,3.1-1.49,5.29-1.5c2.51,0,4.59,0.73,6.25,2.2
  s2.48,3.54,2.49,6.21v11.86h-3.52v-2.72h-0.16C111.22,42.45,109.07,43.57,106.24,43.57z M106.84,40.21
  c1.55-0.01,3.04-0.63,4.15-1.72c1.18-1,1.86-2.48,1.86-4.02c-1.04-0.85-2.61-1.28-4.69-1.28c-1.79,0-3.14,0.39-4.05,1.16
  c-0.85,0.65-1.35,1.66-1.36,2.72c-0.02,0.93,0.45,1.8,1.24,2.28C104.83,39.92,105.83,40.22,106.84,40.21L106.84,40.21z
   M123.16,42.93h-3.68V14.24h3.69L123.16,42.93z M129.16,25.64c1.89-1.99,4.31-2.98,7.25-2.98s5.36,0.99,7.25,2.98
  c1.89,1.99,2.84,4.48,2.84,7.46s-0.95,5.47-2.84,7.46c-1.89,1.99-4.31,2.98-7.25,2.98s-5.36-0.99-7.25-2.96
  c-1.89-1.99-2.84-4.48-2.84-7.46S127.27,27.65,129.16,25.64z M131.91,38.26c2.35,2.49,6.27,2.6,8.76,0.25
  c0.09-0.08,0.17-0.17,0.25-0.25c1.27-1.3,1.9-3.01,1.9-5.15s-0.63-3.85-1.9-5.15c-2.35-2.49-6.27-2.6-8.76-0.25
  c-0.09,0.08-0.17,0.17-0.25,0.25c-1.27,1.3-1.9,3.01-1.9,5.15C130,35.25,130.64,36.97,131.91,38.26L131.91,38.26z M158.77,52.23
  c-2.32,0-4.22-0.58-5.68-1.74c-1.37-1.04-2.46-2.41-3.17-3.99l3.36-1.4c0.39,1.09,1.11,2.03,2.06,2.69c1,0.71,2.2,1.09,3.42,1.07
  c2.03,0,3.63-0.61,4.79-1.82s1.74-2.86,1.74-4.95v-1.88h-0.16c-0.7,1.01-1.63,1.84-2.72,2.4c-1.22,0.65-2.59,0.98-3.97,0.96
  c-2.54,0-4.73-1-6.57-3.01c-1.84-2-2.76-4.49-2.76-7.46s0.92-5.45,2.76-7.46c1.84-2.01,4.03-3.01,6.57-3.01
  c1.38-0.02,2.75,0.31,3.97,0.96c1.09,0.57,2.03,1.39,2.72,2.4h0.16v-2.72h3.52V41.9c0,3.37-0.97,5.92-2.92,7.67
  C163.96,51.34,161.4,52.29,158.77,52.23z M159.05,40.21c1.68,0.02,3.29-0.68,4.43-1.92c1.21-1.28,1.82-3,1.82-5.17
  s-0.61-3.89-1.82-5.17c-2.26-2.43-6.07-2.58-8.5-0.32c-0.12,0.11-0.23,0.22-0.34,0.34c-1.23,1.3-1.84,3.01-1.84,5.15
  s0.61,3.85,1.84,5.15C155.77,39.52,157.37,40.22,159.05,40.21L159.05,40.21z M182.34,14.09c1.01-0.03,2.01,0.15,2.95,0.52
  l-1.28,3.17c-0.53-0.23-1.11-0.34-1.68-0.32c-0.87-0.03-1.72,0.28-2.36,0.86c-0.62,0.58-0.92,1.4-0.92,2.49v2.49h5.13v3.36h-5.12
  v16.28h-3.69V26.67h-3.68v-3.36h3.69v-2.6c0-2,0.64-3.61,1.92-4.81C178.57,14.69,180.25,14.09,182.34,14.09z M191.75,43.01h-3.68
  V14.33h3.69L191.75,43.01z M197.4,25.73c1.89-1.99,4.31-2.98,7.25-2.98s5.36,0.99,7.25,2.98s2.84,4.48,2.84,7.46
  s-0.95,5.47-2.84,7.46s-4.31,2.98-7.25,2.98s-5.36-0.99-7.25-2.98c-1.89-1.99-2.84-4.48-2.84-7.46S195.51,27.72,197.4,25.73z
   M200.15,38.35c2.35,2.49,6.27,2.6,8.76,0.25c0.09-0.08,0.17-0.17,0.25-0.25c1.27-1.3,1.9-3.01,1.9-5.15s-0.63-3.85-1.9-5.15
  c-2.35-2.49-6.27-2.6-8.76-0.25c-0.09,0.08-0.17,0.17-0.25,0.25c-1.27,1.3-1.9,3.01-1.9,5.15
  C198.25,35.34,198.88,37.05,200.15,38.35L200.15,38.35z M238.84,43.01h-3.77l-4.89-15.07l-4.85,15.07h-3.73l-6.33-19.63h3.85
  l4.37,14.82h0.04l4.85-14.82h3.8l4.85,14.82h0.04l4.35-14.82h3.77L238.84,43.01z"/>
</svg>
